<svg xmlns="http://www.w3.org/2000/svg" viewBox="0 0 11.34 11.34" class="mos_ui_icon maximise">
  <g id="maximise-layer-1">
    <g id="maximise-layer-2">
      <g>
        <polygon points="6.87 1.39 9.95 1.39 9.95 4.47 11.34 4.47 11.34 1.39 11.34 0 9.95 0 6.87 0 6.87 1.39"/>
        <polygon points="1.39 4.47 1.39 1.39 4.47 1.39 4.47 0 1.39 0 0 0 0 1.39 0 4.47 1.39 4.47"/>
        <polygon points="4.47 9.95 1.39 9.95 1.39 6.87 0 6.87 0 9.95 0 11.34 1.39 11.34 4.47 11.34 4.47 9.95"/>
        <polygon points="9.95 6.87 9.95 9.95 6.87 9.95 6.87 11.34 9.95 11.34 11.34 11.34 11.34 9.95 11.34 6.87 9.95 6.87"/>
      </g>
    </g>
  </g>
</svg>
