<svg xmlns="http://www.w3.org/2000/svg" viewBox="0 0 11.38 11.34">
  <title>123rrrAsset 11</title>
  <g id="Layer_2" data-name="Layer 2">
    <g id="Layer_1-2" data-name="Layer 1">
      <polygon points="11.38 7.33 10.16 7.35 10.12 9.19 3.73 2.81 3.72 2.81 2.17 1.26 3.99 1.23 4.01 0 2.94 0.02 2.96 0 2.81 0 0.96 0.04 0.06 0.06 0.04 0.96 0 2.96 0.02 2.94 0 4.01 1.23 3.98 1.26 2.15 7.65 8.54 7.66 8.52 9.22 10.08 7.4 10.11 7.38 11.34 8.44 11.32 8.42 11.34 8.57 11.34 10.42 11.3 11.33 11.28 11.35 10.38 11.38 8.38 11.36 8.4 11.38 7.33"/>
    </g>
  </g>
</svg>
